PathFileType	4	(X/Y/Z)	Run_400 02
DataRate	CameraRate	NumFrames	NumMarkers	Units	OrigDataRate	OrigDataStartFrame	OrigNumFrames
100	100	8	42	mm	100	534	128
Frame#	Time	RASI			LPSI			RPSI			RTH1			RTH2			RTH3			LTH1			LTH2			LTH3			RTB1			RTB2			RTB3			LTB1			LTB2			LTB3			RCAL			RTOE			RMT5			LCAL			LTOE			LMT5			LACR			RACR			CLAV			C7			RUA1			RUA2			RUA3			RLEL			RMEL			LUA2			LUA3			LLEL			LMEL			RFAsuperior			RFAradius			RFAulna			LFAsuperior			LFAradius			LFAulna			LUA1			LASI		
		X1	Y1	Z1	X2	Y2	Z2	X3	Y3	Z3	X4	Y4	Z4	X5	Y5	Z5	X6	Y6	Z6	X7	Y7	Z7	X8	Y8	Z8	X9	Y9	Z9	X10	Y10	Z10	X11	Y11	Z11	X12	Y12	Z12	X13	Y13	Z13	X14	Y14	Z14	X15	Y15	Z15	X16	Y16	Z16	X17	Y17	Z17	X18	Y18	Z18	X19	Y19	Z19	X20	Y20	Z20	X21	Y21	Z21	X22	Y22	Z22	X23	Y23	Z23	X24	Y24	Z24	X25	Y25	Z25	X26	Y26	Z26	X27	Y27	Z27	X28	Y28	Z28	X29	Y29	Z29	X30	Y30	Z30	X31	Y31	Z31	X32	Y32	Z32	X33	Y33	Z33	X34	Y34	Z34	X35	Y35	Z35	X36	Y36	Z36	X37	Y37	Z37	X38	Y38	Z38	X39	Y39	Z39	X40	Y40	Z40	X41	Y41	Z41	X42	Y42	Z42	

534	  5.340000	1167.790805	948.154766	-152.368373	1008.089675	1023.312882	-329.441268	1002.119107	1011.529736	-237.670854	1150.990056	777.197728	-114.038790	1229.442127	700.283350	-125.332721	1219.270010	562.465020	-143.515317	1100.119175	826.507819	-480.534128	1182.206737	703.138008	-467.661011	1127.521364	578.640024	-446.255114	1124.436657	413.598097	-222.220121	1020.330713	444.153747	-174.683101	947.130833	416.609891	-234.197090	1115.629763	303.601457	-352.996745	1058.002304	260.881749	-392.155574	1030.326362	195.212837	-328.468375	827.741081	520.369060	-227.851223	853.612000	285.788574	-237.048582	833.393923	299.154296	-160.622015	854.426687	120.221900	-303.573375	1116.226185	 54.214381	-281.344574	1060.477009	 55.498079	-366.104099	1238.105312	1458.040347	-472.940401	1207.913831	1448.991599	-124.894464	1264.884665	1391.273122	-265.987519	1164.878725	1495.867613	-304.841521	1115.009862	1334.741699	-53.541040	1044.148804	1344.437382	-60.628781	1039.081807	1272.227732	-41.961072	986.938174	1210.505682	-23.635139	956.680698	1215.902991	-110.689188	1085.425199	1303.737972	-527.888031	1111.011103	1232.882858	-564.638984	1086.652809	1171.642907	-584.686337	1063.632845	1149.331633	-496.904592	1064.472174	1162.933386	-36.726672	1194.120193	1083.283786	-111.014564	1152.819466	1031.986130	-81.484508	1173.187863	1149.018737	-581.654506	1333.354327	1149.183969	-511.359432	1328.154971	1082.384951	-540.187287	1171.549622	1345.924817	-546.603026	1176.183883	964.351689	-412.730301	
535	  5.350000	1166.517388	954.032908	-153.504977	1008.053951	1027.985087	-330.756450	1001.378086	1017.224747	-238.380767	1153.983944	787.251919	-112.488495	1236.560450	714.848414	-125.517524	1234.263442	577.732464	-143.965172	1096.678516	828.517198	-479.230528	1171.511857	702.355844	-465.844160	1108.853406	579.322433	-445.377875	1150.835881	419.155463	-223.560539	1043.345840	441.873346	-176.804890	973.742045	407.480131	-236.447234	1084.832608	303.293387	-353.094312	1025.779302	262.386266	-392.123119	996.352969	197.193373	-329.185805	843.863207	499.062817	-233.056555	894.536065	268.422412	-235.776471	872.884116	281.554435	-159.673465	818.551059	127.711013	-305.662568	1077.387011	 54.747562	-280.561146	1021.758550	 55.471328	-365.895518	1243.285277	1463.083439	-470.095808	1200.680047	1456.083671	-124.328240	1263.417634	1397.015816	-262.670144	1164.380451	1500.966671	-305.381523	1103.168824	1345.870557	-53.797000	1033.281706	1356.535419	-65.284877	1026.298677	1284.687889	-44.367406	972.412460	1224.355814	-27.776124	944.313040	1229.206411	-115.856055	1092.668269	1309.089100	-529.424686	1119.281930	1237.256387	-563.674416	1095.537484	1175.225443	-583.175449	1072.020564	1154.748500	-494.972892	1051.138689	1179.472487	-38.887390	1183.191392	1101.103913	-109.395806	1142.814968	1049.356264	-80.044448	1182.610840	1156.036215	-577.401537	1340.871054	1164.245797	-502.484721	1339.627246	1096.772294	-529.836583	1180.102261	1350.223316	-545.292117	1176.307522	966.191119	-412.924343	
536	  5.360000	1166.470333	961.069303	-155.199370	1008.881079	1033.215485	-332.301186	1001.958583	1023.735581	-239.559484	1157.234968	798.877423	-111.272391	1242.282721	730.918439	-125.724072	1247.636677	594.161515	-144.425172	1094.182876	830.746692	-478.231825	1160.311458	700.553844	-464.150634	1088.966016	581.320247	-444.255641	1176.154090	425.016785	-224.684509	1065.658137	439.395760	-178.904767	1000.971238	397.199730	-237.959085	1053.151468	305.088809	-353.504091	992.890828	265.990578	-392.390862	961.938944	201.114677	-330.090816	861.205807	475.077168	-238.338207	937.749896	251.656842	-234.826050	914.178392	264.088178	-159.288536	782.941377	137.703474	-308.351754	1036.980721	 55.172899	-279.273643	981.861920	 55.630649	-365.695996	1247.464343	1469.641403	-467.055015	1194.688621	1464.141575	-123.680236	1261.986684	1404.288317	-259.518986	1163.597188	1506.942019	-305.543819	1092.758068	1358.316310	-54.231337	1024.068677	1369.651699	-70.031039	1014.751551	1298.580774	-46.902621	958.987125	1240.054536	-31.993617	933.586103	1244.153717	-120.856264	1099.275328	1315.506565	-531.340768	1127.496206	1242.954607	-563.191690	1104.690624	1180.183008	-582.184725	1078.727288	1161.327122	-493.965350	1038.830775	1197.192853	-40.989683	1173.181325	1120.209012	-108.323346	1133.696009	1068.054310	-78.892176	1192.090544	1164.897593	-573.019968	1347.050304	1181.642223	-493.281229	1349.897293	1113.496863	-518.211233	1187.746221	1355.986767	-543.828347	1177.189861	968.616454	-413.450423	
537	  5.370000	1167.471303	969.140088	-157.268362	1010.487365	1038.621158	-334.030614	1003.429028	1030.843059	-241.081627	1160.548511	811.560304	-110.317145	1247.228532	747.824254	-126.015736	1259.437800	611.293366	-144.841005	1092.149727	833.239372	-477.422944	1149.146868	698.602527	-462.348509	1069.112796	584.687025	-443.286523	1200.308231	431.315365	-225.430232	1087.558767	436.214349	-180.921264	1028.741945	385.776707	-238.786224	1021.132434	309.060361	-354.242546	959.876393	271.814970	-393.183116	927.777903	206.912822	-331.315666	880.646295	448.889328	-243.434275	982.803014	235.973521	-234.516517	956.956217	247.072718	-159.707546	748.573596	149.641144	-311.282787	995.809563	 55.450921	-277.949425	941.527578	 55.889136	-365.624434	1250.843461	1477.683130	-464.120250	1190.014527	1472.756027	-122.745510	1260.739407	1412.869631	-256.347600	1162.646360	1513.869668	-305.245687	1084.003699	1371.465450	-54.801706	1016.658302	1383.478891	-74.789501	1004.496263	1313.748562	-49.529317	946.805936	1257.026860	-36.064366	924.848486	1260.447306	-125.769525	1105.263412	1322.439132	-533.840487	1135.735636	1249.735127	-563.103512	1113.999708	1186.384623	-581.684947	1084.380887	1168.698577	-494.019906	1027.303704	1215.242365	-42.792432	1164.210775	1140.054390	-107.725356	1125.369899	1087.525428	-78.356664	1201.334787	1174.964838	-568.668421	1351.822406	1200.451167	-483.947278	1358.672524	1131.799917	-505.730843	1194.154353	1363.259737	-542.245915	1178.774571	971.700312	-414.127531	
538	  5.380000	1169.151045	977.989783	-159.550921	1012.845602	1044.104555	-335.999303	1005.442033	1038.434452	-242.808112	1163.788245	824.812553	-109.563254	1251.837920	764.832033	-126.582024	1269.692136	628.653664	-145.136484	1090.160248	836.177079	-476.628351	1138.263879	698.065904	-460.187457	1050.118964	589.684662	-442.717621	1223.329133	437.781592	-225.897230	1109.449418	431.960346	-182.784688	1057.222143	373.853983	-239.843830	989.533423	315.035720	-355.201679	927.485276	279.610889	-394.571902	894.717976	214.271986	-332.929056	902.801738	421.214602	-248.064357	1029.191637	221.755870	-235.265648	1001.056482	230.665643	-161.047742	716.351179	162.837295	-314.150228	954.996477	 55.574838	-277.413319	901.754225	 56.200324	-365.939620	1253.579814	1487.014314	-461.359553	1186.438003	1481.646579	-121.506338	1259.678849	1422.326382	-253.126711	1161.687995	1521.682625	-304.447484	1076.964609	1384.755086	-55.454042	1011.116185	1397.912300	-79.407555	995.704551	1329.983282	-52.112737	936.140121	1274.608886	-39.897131	917.834132	1277.598804	-130.639089	1110.868591	1329.922318	-536.716204	1143.784067	1257.602862	-563.291283	1123.194599	1193.737657	-581.623409	1089.648161	1176.803387	-495.065954	1016.731086	1233.296563	-44.429386	1156.340730	1160.190541	-107.401906	1117.832878	1107.243206	-78.567368	1210.035902	1185.912165	-564.514873	1355.134870	1219.889690	-474.516095	1365.776936	1151.037714	-493.005443	1199.401208	1372.008506	-540.651986	1180.917327	975.438463	-414.844070	
539	  5.390000	1171.104967	987.350468	-161.805108	1016.035511	1049.821868	-338.386557	1007.910398	1046.444303	-244.838626	1166.916734	838.201548	-109.128399	1256.093098	781.434578	-127.480572	1278.361965	645.600655	-145.311906	1088.121165	839.730017	-475.775441	1127.796071	699.681215	-457.685756	1032.156717	596.549670	-442.527964	1245.339683	443.900842	-226.378043	1131.683878	426.486015	-184.438566	1086.709304	362.210316	-241.859814	959.107023	322.822922	-356.302959	896.458812	289.044364	-396.413218	863.427631	222.916394	-334.953011	927.889357	392.799467	-251.869272	1076.529563	209.307751	-237.441502	1046.533613	214.977643	-163.443881	686.701281	177.048846	-316.892270	914.975952	 55.641628	-277.982508	862.907817	 56.597213	-366.748772	1255.669304	1497.236015	-458.583060	1183.616151	1490.610546	-120.045909	1258.679645	1432.088487	-250.020018	1160.726261	1530.055936	-303.194467	1071.486123	1397.813807	-56.075152	1007.341672	1412.784295	-83.601290	988.583207	1346.804814	-54.416471	927.163847	1292.252262	-43.492676	912.107418	1295.197142	-135.375229	1116.341250	1338.308493	-539.334053	1151.391395	1266.638809	-563.693640	1132.041360	1202.156173	-581.952145	1094.821236	1185.784532	-496.861258	1007.459634	1251.228071	-46.090948	1149.583193	1180.187533	-107.134029	1111.148372	1126.672759	-79.504861	1218.023448	1197.636726	-560.746177	1357.093670	1239.296570	-465.069406	1371.263976	1170.588230	-480.676695	1203.848810	1382.016678	-539.148724	1183.559896	979.627878	-415.490603	
540	  5.400000	1173.069526	996.942230	-163.794926	1020.044552	1055.879996	-341.296847	1010.813948	1054.741903	-247.379389	1169.983621	851.385991	-109.164866	1259.821672	797.253022	-128.652090	1285.302841	661.407723	-145.521109	1086.266918	843.847412	-474.910898	1117.883730	702.922699	-455.085707	1015.142038	605.149244	-442.486463	1266.396649	449.293245	-227.069354	1154.441110	419.861698	-185.874061	1117.272871	351.177671	-244.607092	930.368730	332.281394	-357.655610	867.202746	299.976692	-398.492870	834.243452	232.704192	-337.454652	955.785907	364.159348	-254.622970	1124.550754	198.860697	-241.128401	1093.481904	200.213263	-167.040188	659.718706	192.444429	-319.666422	875.611318	 55.788059	-279.191969	824.783331	 57.252133	-367.891320	1257.079408	1507.857645	-455.546665	1181.267934	1499.435501	-118.477918	1257.644285	1441.647357	-247.197948	1159.643339	1538.532310	-301.617777	1067.299635	1410.486488	-56.518772	1005.056990	1427.709828	-87.016327	983.182446	1363.483088	-56.165271	919.795373	1309.549830	-46.812428	907.387746	1312.934791	-139.830028	1121.669853	1347.808750	-541.009173	1158.453603	1276.804285	-564.312345	1140.389410	1211.520276	-582.600572	1099.683845	1195.705998	-499.099047	999.684333	1268.852348	-47.830350	1143.921946	1199.620426	-106.746034	1105.395645	1145.330795	-81.046990	1225.252564	1210.011947	-557.498632	1357.943853	1258.111629	-455.842000	1375.377507	1189.829690	-469.208626	1207.908312	1392.903032	-537.759205	1186.737173	983.810627	-415.866074	
541	  5.410000	1174.980384	1006.368535	-165.448484	1024.580676	1062.094055	-344.575754	1013.979274	1063.010445	-250.462469	1173.010999	864.139387	-109.633848	1262.979078	811.811732	-130.002365	1290.314971	675.439740	-146.049267	1084.968115	848.184977	-474.144039	1108.680241	706.765746	-452.525871	999.221508	614.912036	-442.284466	1286.354584	453.826087	-227.854771	1177.662248	412.307762	-187.137211	1148.630851	340.609865	-247.296226	903.583987	343.290739	-359.395538	839.847866	312.437622	-400.685084	807.350933	243.563739	-340.507315	986.244088	335.483538	-256.515292	1173.020986	190.623035	-245.971857	1141.791144	186.748665	-171.763114	635.686366	209.201142	-322.689030	837.000302	 56.057539	-280.458367	787.303444	 58.492003	-369.110908	1257.927518	1518.457502	-452.168393	1179.285009	1507.862354	-116.951739	1256.597421	1450.682024	-244.705677	1158.355870	1546.662205	-299.887511	1064.194011	1422.680655	-56.659204	1003.897904	1442.121928	-89.355985	979.316056	1379.239862	-57.156346	913.765871	1326.095947	-49.696057	903.551676	1330.437995	-143.835844	1126.563718	1358.257984	-541.396816	1164.970195	1287.890926	-565.149049	1148.146437	1221.638721	-583.491630	1103.682505	1206.368002	-501.468456	993.349319	1285.838904	-49.548998	1139.304766	1218.039330	-106.107580	1100.619284	1162.814611	-82.967501	1231.778838	1222.744065	-554.794434	1357.971934	1275.866207	-447.109352	1378.434357	1208.196069	-458.792723	1211.816918	1404.235680	-536.422065	1190.401427	987.368505	-415.659281	
